<?xml version="1.0" standalone="no"?>
 <!DOCTYPE svg PUBLIC "-//W3C//DTD SVG 1.1//EN" 
 "http://www.w3.org/Graphics/SVG/1.1/DTD/svg11.dtd"> 
<svg xmlns="http://www.w3.org/2000/svg" version="1.1" 
    width="27.94cm" height="21.59cm" viewBox="0 0 110000 85000 ">
<title>SVG Picture created as ionode-F.SilkS.svg date 2018/10/28 17:09:32 </title>
  <desc>Picture generated by PCBNEW </desc>
<g style="fill:#000000; fill-opacity:1;stroke:#000000; stroke-opacity:1;
stroke-linecap:round; stroke-linejoin:round; "
 transform="translate(0 0) scale(1 1)">
</g>
<g style="fill:#000000; fill-opacity:0.0; 
stroke:#000000; stroke-width:-0.000393701; stroke-opacity:1; 
stroke-linecap:round; stroke-linejoin:round;">
</g>
<g style="fill:#000000; fill-opacity:0.0; 
stroke:#000000; stroke-width:39.3701; stroke-opacity:1; 
stroke-linecap:round; stroke-linejoin:round;">
</g>
<g style="fill:#000000; fill-opacity:0.0; 
stroke:#000000; stroke-width:59.0551; stroke-opacity:1; 
stroke-linecap:round; stroke-linejoin:round;">
<rect x="62755.9" y="67677.2" width="42519.7" height="12598.4" rx="0" />
</g>
<g style="fill:#000000; fill-opacity:0.0; 
stroke:#000000; stroke-width:39.3701; stroke-opacity:1; 
stroke-linecap:round; stroke-linejoin:round;">
</g>
<g style="fill:#000000; fill-opacity:0.0; 
stroke:#000000; stroke-width:59.0551; stroke-opacity:1; 
stroke-linecap:round; stroke-linejoin:round;">
<rect x="3937.01" y="3937.01" width="102126" height="77126" rx="0" />
</g>
<g style="fill:#000000; fill-opacity:0.0; 
stroke:#000000; stroke-width:39.3701; stroke-opacity:1; 
stroke-linecap:round; stroke-linejoin:round;">
</g>
<g style="fill:#000000; fill-opacity:0.0; 
stroke:#000000; stroke-width:59.0551; stroke-opacity:1; 
stroke-linecap:round; stroke-linejoin:round;">
<rect x="4724.41" y="4724.41" width="100551" height="75551.2" rx="0" />
</g>
<g style="fill:#000000; fill-opacity:0.0; 
stroke:#000000; stroke-width:39.3701; stroke-opacity:1; 
stroke-linecap:round; stroke-linejoin:round;">
</g>
<g style="fill:#000000; fill-opacity:0.0; 
stroke:#000000; stroke-width:59.0551; stroke-opacity:1; 
stroke-linecap:round; stroke-linejoin:round;">
<path d="M23622 4724
L23622 3937
" />
</g>
<g style="fill:#000000; fill-opacity:0.0; 
stroke:#000000; stroke-width:39.3701; stroke-opacity:1; 
stroke-linecap:round; stroke-linejoin:round;">
</g>
<g style="fill:#000000; fill-opacity:0.0; 
stroke:#000000; stroke-width:59.0551; stroke-opacity:1; 
stroke-linecap:round; stroke-linejoin:round;">
<path d="M43307 4724
L43307 3937
" />
</g>
<g style="fill:#000000; fill-opacity:0.0; 
stroke:#000000; stroke-width:39.3701; stroke-opacity:1; 
stroke-linecap:round; stroke-linejoin:round;">
</g>
<g style="fill:#000000; fill-opacity:0.0; 
stroke:#000000; stroke-width:59.0551; stroke-opacity:1; 
stroke-linecap:round; stroke-linejoin:round;">
<path d="M62992 4724
L62992 3937
" />
</g>
<g style="fill:#000000; fill-opacity:0.0; 
stroke:#000000; stroke-width:39.3701; stroke-opacity:1; 
stroke-linecap:round; stroke-linejoin:round;">
</g>
<g style="fill:#000000; fill-opacity:0.0; 
stroke:#000000; stroke-width:59.0551; stroke-opacity:1; 
stroke-linecap:round; stroke-linejoin:round;">
<path d="M82677 4724
L82677 3937
" />
</g>
<g style="fill:#000000; fill-opacity:0.0; 
stroke:#000000; stroke-width:39.3701; stroke-opacity:1; 
stroke-linecap:round; stroke-linejoin:round;">
</g>
<g style="fill:#000000; fill-opacity:0.0; 
stroke:#000000; stroke-width:59.0551; stroke-opacity:1; 
stroke-linecap:round; stroke-linejoin:round;">
<path d="M102362 4724
L102362 3937
" />
</g>
<g style="fill:#000000; fill-opacity:0.0; 
stroke:#000000; stroke-width:39.3701; stroke-opacity:1; 
stroke-linecap:round; stroke-linejoin:round;">
</g>
<g style="fill:#000000; fill-opacity:0.0; 
stroke:#000000; stroke-width:59.0551; stroke-opacity:1; 
stroke-linecap:round; stroke-linejoin:round;">
<path d="M14169 4562
L13877 4562
" />
<path d="M14023 4562
L14023 4050
L13974 4123
L13925 4172
L13877 4196
" />
</g>
<g style="fill:#000000; fill-opacity:0.0; 
stroke:#000000; stroke-width:39.3701; stroke-opacity:1; 
stroke-linecap:round; stroke-linejoin:round;">
</g>
<g style="fill:#000000; fill-opacity:0.0; 
stroke:#000000; stroke-width:59.0551; stroke-opacity:1; 
stroke-linecap:round; stroke-linejoin:round;">
<path d="M33562 4099
L33586 4074
L33635 4050
L33757 4050
L33805 4074
L33830 4099
L33854 4147
L33854 4196
L33830 4269
L33537 4562
L33854 4562
" />
</g>
<g style="fill:#000000; fill-opacity:0.0; 
stroke:#000000; stroke-width:39.3701; stroke-opacity:1; 
stroke-linecap:round; stroke-linejoin:round;">
</g>
<g style="fill:#000000; fill-opacity:0.0; 
stroke:#000000; stroke-width:59.0551; stroke-opacity:1; 
stroke-linecap:round; stroke-linejoin:round;">
<path d="M53222 4050
L53539 4050
L53368 4245
L53442 4245
L53490 4269
L53515 4294
L53539 4342
L53539 4464
L53515 4513
L53490 4537
L53442 4562
L53295 4562
L53247 4537
L53222 4513
" />
</g>
<g style="fill:#000000; fill-opacity:0.0; 
stroke:#000000; stroke-width:39.3701; stroke-opacity:1; 
stroke-linecap:round; stroke-linejoin:round;">
</g>
<g style="fill:#000000; fill-opacity:0.0; 
stroke:#000000; stroke-width:59.0551; stroke-opacity:1; 
stroke-linecap:round; stroke-linejoin:round;">
<path d="M73175 4221
L73175 4562
" />
<path d="M73053 4026
L72932 4391
L73248 4391
" />
</g>
<g style="fill:#000000; fill-opacity:0.0; 
stroke:#000000; stroke-width:39.3701; stroke-opacity:1; 
stroke-linecap:round; stroke-linejoin:round;">
</g>
<g style="fill:#000000; fill-opacity:0.0; 
stroke:#000000; stroke-width:59.0551; stroke-opacity:1; 
stroke-linecap:round; stroke-linejoin:round;">
<path d="M92885 4050
L92641 4050
L92617 4294
L92641 4269
L92690 4245
L92812 4245
L92860 4269
L92885 4294
L92909 4342
L92909 4464
L92885 4513
L92860 4537
L92812 4562
L92690 4562
L92641 4537
L92617 4513
" />
</g>
<g style="fill:#000000; fill-opacity:0.0; 
stroke:#000000; stroke-width:39.3701; stroke-opacity:1; 
stroke-linecap:round; stroke-linejoin:round;">
</g>
<g style="fill:#000000; fill-opacity:0.0; 
stroke:#000000; stroke-width:59.0551; stroke-opacity:1; 
stroke-linecap:round; stroke-linejoin:round;">
<path d="M23622 80275
L23622 81062
" />
</g>
<g style="fill:#000000; fill-opacity:0.0; 
stroke:#000000; stroke-width:39.3701; stroke-opacity:1; 
stroke-linecap:round; stroke-linejoin:round;">
</g>
<g style="fill:#000000; fill-opacity:0.0; 
stroke:#000000; stroke-width:59.0551; stroke-opacity:1; 
stroke-linecap:round; stroke-linejoin:round;">
<path d="M43307 80275
L43307 81062
" />
</g>
<g style="fill:#000000; fill-opacity:0.0; 
stroke:#000000; stroke-width:39.3701; stroke-opacity:1; 
stroke-linecap:round; stroke-linejoin:round;">
</g>
<g style="fill:#000000; fill-opacity:0.0; 
stroke:#000000; stroke-width:59.0551; stroke-opacity:1; 
stroke-linecap:round; stroke-linejoin:round;">
<path d="M62992 80275
L62992 81062
" />
</g>
<g style="fill:#000000; fill-opacity:0.0; 
stroke:#000000; stroke-width:39.3701; stroke-opacity:1; 
stroke-linecap:round; stroke-linejoin:round;">
</g>
<g style="fill:#000000; fill-opacity:0.0; 
stroke:#000000; stroke-width:59.0551; stroke-opacity:1; 
stroke-linecap:round; stroke-linejoin:round;">
<path d="M82677 80275
L82677 81062
" />
</g>
<g style="fill:#000000; fill-opacity:0.0; 
stroke:#000000; stroke-width:39.3701; stroke-opacity:1; 
stroke-linecap:round; stroke-linejoin:round;">
</g>
<g style="fill:#000000; fill-opacity:0.0; 
stroke:#000000; stroke-width:59.0551; stroke-opacity:1; 
stroke-linecap:round; stroke-linejoin:round;">
<path d="M102362 80275
L102362 81062
" />
</g>
<g style="fill:#000000; fill-opacity:0.0; 
stroke:#000000; stroke-width:39.3701; stroke-opacity:1; 
stroke-linecap:round; stroke-linejoin:round;">
</g>
<g style="fill:#000000; fill-opacity:0.0; 
stroke:#000000; stroke-width:59.0551; stroke-opacity:1; 
stroke-linecap:round; stroke-linejoin:round;">
<path d="M14169 80900
L13877 80900
" />
<path d="M14023 80900
L14023 80389
L13974 80462
L13925 80510
L13877 80535
" />
</g>
<g style="fill:#000000; fill-opacity:0.0; 
stroke:#000000; stroke-width:39.3701; stroke-opacity:1; 
stroke-linecap:round; stroke-linejoin:round;">
</g>
<g style="fill:#000000; fill-opacity:0.0; 
stroke:#000000; stroke-width:59.0551; stroke-opacity:1; 
stroke-linecap:round; stroke-linejoin:round;">
<path d="M33562 80437
L33586 80413
L33635 80389
L33757 80389
L33805 80413
L33830 80437
L33854 80486
L33854 80535
L33830 80608
L33537 80900
L33854 80900
" />
</g>
<g style="fill:#000000; fill-opacity:0.0; 
stroke:#000000; stroke-width:39.3701; stroke-opacity:1; 
stroke-linecap:round; stroke-linejoin:round;">
</g>
<g style="fill:#000000; fill-opacity:0.0; 
stroke:#000000; stroke-width:59.0551; stroke-opacity:1; 
stroke-linecap:round; stroke-linejoin:round;">
<path d="M53222 80389
L53539 80389
L53368 80583
L53442 80583
L53490 80608
L53515 80632
L53539 80681
L53539 80803
L53515 80852
L53490 80876
L53442 80900
L53295 80900
L53247 80876
L53222 80852
" />
</g>
<g style="fill:#000000; fill-opacity:0.0; 
stroke:#000000; stroke-width:39.3701; stroke-opacity:1; 
stroke-linecap:round; stroke-linejoin:round;">
</g>
<g style="fill:#000000; fill-opacity:0.0; 
stroke:#000000; stroke-width:59.0551; stroke-opacity:1; 
stroke-linecap:round; stroke-linejoin:round;">
<path d="M73175 80559
L73175 80900
" />
<path d="M73053 80364
L72932 80730
L73248 80730
" />
</g>
<g style="fill:#000000; fill-opacity:0.0; 
stroke:#000000; stroke-width:39.3701; stroke-opacity:1; 
stroke-linecap:round; stroke-linejoin:round;">
</g>
<g style="fill:#000000; fill-opacity:0.0; 
stroke:#000000; stroke-width:59.0551; stroke-opacity:1; 
stroke-linecap:round; stroke-linejoin:round;">
<path d="M92885 80389
L92641 80389
L92617 80632
L92641 80608
L92690 80583
L92812 80583
L92860 80608
L92885 80632
L92909 80681
L92909 80803
L92885 80852
L92860 80876
L92812 80900
L92690 80900
L92641 80876
L92617 80852
" />
</g>
<g style="fill:#000000; fill-opacity:0.0; 
stroke:#000000; stroke-width:39.3701; stroke-opacity:1; 
stroke-linecap:round; stroke-linejoin:round;">
</g>
<g style="fill:#000000; fill-opacity:0.0; 
stroke:#000000; stroke-width:59.0551; stroke-opacity:1; 
stroke-linecap:round; stroke-linejoin:round;">
<path d="M3937 23622
L4724 23622
" />
</g>
<g style="fill:#000000; fill-opacity:0.0; 
stroke:#000000; stroke-width:39.3701; stroke-opacity:1; 
stroke-linecap:round; stroke-linejoin:round;">
</g>
<g style="fill:#000000; fill-opacity:0.0; 
stroke:#000000; stroke-width:59.0551; stroke-opacity:1; 
stroke-linecap:round; stroke-linejoin:round;">
<path d="M3937 43307
L4724 43307
" />
</g>
<g style="fill:#000000; fill-opacity:0.0; 
stroke:#000000; stroke-width:39.3701; stroke-opacity:1; 
stroke-linecap:round; stroke-linejoin:round;">
</g>
<g style="fill:#000000; fill-opacity:0.0; 
stroke:#000000; stroke-width:59.0551; stroke-opacity:1; 
stroke-linecap:round; stroke-linejoin:round;">
<path d="M3937 62992
L4724 62992
" />
</g>
<g style="fill:#000000; fill-opacity:0.0; 
stroke:#000000; stroke-width:39.3701; stroke-opacity:1; 
stroke-linecap:round; stroke-linejoin:round;">
</g>
<g style="fill:#000000; fill-opacity:0.0; 
stroke:#000000; stroke-width:59.0551; stroke-opacity:1; 
stroke-linecap:round; stroke-linejoin:round;">
<path d="M4208 13864
L4452 13864
" />
<path d="M4160 14011
L4330 13499
L4501 14011
" />
</g>
<g style="fill:#000000; fill-opacity:0.0; 
stroke:#000000; stroke-width:39.3701; stroke-opacity:1; 
stroke-linecap:round; stroke-linejoin:round;">
</g>
<g style="fill:#000000; fill-opacity:0.0; 
stroke:#000000; stroke-width:59.0551; stroke-opacity:1; 
stroke-linecap:round; stroke-linejoin:round;">
<path d="M4367 33428
L4440 33452
L4464 33476
L4489 33525
L4489 33598
L4464 33647
L4440 33671
L4391 33696
L4196 33696
L4196 33184
L4367 33184
L4416 33208
L4440 33233
L4464 33281
L4464 33330
L4440 33379
L4416 33403
L4367 33428
L4196 33428
" />
</g>
<g style="fill:#000000; fill-opacity:0.0; 
stroke:#000000; stroke-width:39.3701; stroke-opacity:1; 
stroke-linecap:round; stroke-linejoin:round;">
</g>
<g style="fill:#000000; fill-opacity:0.0; 
stroke:#000000; stroke-width:59.0551; stroke-opacity:1; 
stroke-linecap:round; stroke-linejoin:round;">
<path d="M4489 53332
L4464 53356
L4391 53381
L4342 53381
L4269 53356
L4221 53308
L4196 53259
L4172 53161
L4172 53088
L4196 52991
L4221 52942
L4269 52893
L4342 52869
L4391 52869
L4464 52893
L4489 52918
" />
</g>
<g style="fill:#000000; fill-opacity:0.0; 
stroke:#000000; stroke-width:39.3701; stroke-opacity:1; 
stroke-linecap:round; stroke-linejoin:round;">
</g>
<g style="fill:#000000; fill-opacity:0.0; 
stroke:#000000; stroke-width:59.0551; stroke-opacity:1; 
stroke-linecap:round; stroke-linejoin:round;">
<path d="M4196 73066
L4196 72554
L4318 72554
L4391 72578
L4440 72627
L4464 72676
L4489 72773
L4489 72846
L4464 72944
L4440 72993
L4391 73041
L4318 73066
L4196 73066
" />
</g>
<g style="fill:#000000; fill-opacity:0.0; 
stroke:#000000; stroke-width:39.3701; stroke-opacity:1; 
stroke-linecap:round; stroke-linejoin:round;">
</g>
<g style="fill:#000000; fill-opacity:0.0; 
stroke:#000000; stroke-width:59.0551; stroke-opacity:1; 
stroke-linecap:round; stroke-linejoin:round;">
<path d="M106062 23622
L105275 23622
" />
</g>
<g style="fill:#000000; fill-opacity:0.0; 
stroke:#000000; stroke-width:39.3701; stroke-opacity:1; 
stroke-linecap:round; stroke-linejoin:round;">
</g>
<g style="fill:#000000; fill-opacity:0.0; 
stroke:#000000; stroke-width:59.0551; stroke-opacity:1; 
stroke-linecap:round; stroke-linejoin:round;">
<path d="M106062 43307
L105275 43307
" />
</g>
<g style="fill:#000000; fill-opacity:0.0; 
stroke:#000000; stroke-width:39.3701; stroke-opacity:1; 
stroke-linecap:round; stroke-linejoin:round;">
</g>
<g style="fill:#000000; fill-opacity:0.0; 
stroke:#000000; stroke-width:59.0551; stroke-opacity:1; 
stroke-linecap:round; stroke-linejoin:round;">
<path d="M106062 62992
L105275 62992
" />
</g>
<g style="fill:#000000; fill-opacity:0.0; 
stroke:#000000; stroke-width:39.3701; stroke-opacity:1; 
stroke-linecap:round; stroke-linejoin:round;">
</g>
<g style="fill:#000000; fill-opacity:0.0; 
stroke:#000000; stroke-width:59.0551; stroke-opacity:1; 
stroke-linecap:round; stroke-linejoin:round;">
<path d="M105547 13864
L105791 13864
" />
<path d="M105498 14011
L105669 13499
L105839 14011
" />
</g>
<g style="fill:#000000; fill-opacity:0.0; 
stroke:#000000; stroke-width:39.3701; stroke-opacity:1; 
stroke-linecap:round; stroke-linejoin:round;">
</g>
<g style="fill:#000000; fill-opacity:0.0; 
stroke:#000000; stroke-width:59.0551; stroke-opacity:1; 
stroke-linecap:round; stroke-linejoin:round;">
<path d="M105705 33428
L105778 33452
L105803 33476
L105827 33525
L105827 33598
L105803 33647
L105778 33671
L105730 33696
L105535 33696
L105535 33184
L105705 33184
L105754 33208
L105778 33233
L105803 33281
L105803 33330
L105778 33379
L105754 33403
L105705 33428
L105535 33428
" />
</g>
<g style="fill:#000000; fill-opacity:0.0; 
stroke:#000000; stroke-width:39.3701; stroke-opacity:1; 
stroke-linecap:round; stroke-linejoin:round;">
</g>
<g style="fill:#000000; fill-opacity:0.0; 
stroke:#000000; stroke-width:59.0551; stroke-opacity:1; 
stroke-linecap:round; stroke-linejoin:round;">
<path d="M105827 53332
L105803 53356
L105730 53381
L105681 53381
L105608 53356
L105559 53308
L105535 53259
L105510 53161
L105510 53088
L105535 52991
L105559 52942
L105608 52893
L105681 52869
L105730 52869
L105803 52893
L105827 52918
" />
</g>
<g style="fill:#000000; fill-opacity:0.0; 
stroke:#000000; stroke-width:39.3701; stroke-opacity:1; 
stroke-linecap:round; stroke-linejoin:round;">
</g>
<g style="fill:#000000; fill-opacity:0.0; 
stroke:#000000; stroke-width:59.0551; stroke-opacity:1; 
stroke-linecap:round; stroke-linejoin:round;">
<path d="M105535 73066
L105535 72554
L105657 72554
L105730 72578
L105778 72627
L105803 72676
L105827 72773
L105827 72846
L105803 72944
L105778 72993
L105730 73041
L105657 73066
L105535 73066
" />
</g>
<g style="fill:#000000; fill-opacity:0.0; 
stroke:#000000; stroke-width:39.3701; stroke-opacity:1; 
stroke-linecap:round; stroke-linejoin:round;">
</g>
<g style="fill:#000000; fill-opacity:0.0; 
stroke:#000000; stroke-width:59.0551; stroke-opacity:1; 
stroke-linecap:round; stroke-linejoin:round;">
<path d="M71951 78613
L71951 78023
L72092 78023
L72176 78051
L72232 78107
L72260 78163
L72289 78276
L72289 78360
L72260 78473
L72232 78529
L72176 78585
L72092 78613
L71951 78613
" />
<path d="M72795 78613
L72795 78304
L72767 78248
L72710 78219
L72598 78219
L72542 78248
" />
<path d="M72795 78585
L72739 78613
L72598 78613
L72542 78585
L72514 78529
L72514 78473
L72542 78416
L72598 78388
L72739 78388
L72795 78360
" />
<path d="M72992 78219
L73217 78219
" />
<path d="M73076 78023
L73076 78529
L73104 78585
L73160 78613
L73217 78613
" />
<path d="M73638 78585
L73582 78613
L73470 78613
L73413 78585
L73385 78529
L73385 78304
L73413 78248
L73470 78219
L73582 78219
L73638 78248
L73667 78304
L73667 78360
L73385 78416
" />
<path d="M73920 78557
L73948 78585
L73920 78613
L73892 78585
L73920 78557
L73920 78613
" />
<path d="M73920 78248
L73948 78276
L73920 78304
L73892 78276
L73920 78248
L73920 78304
" />
</g>
<g style="fill:#000000; fill-opacity:0.0; 
stroke:#000000; stroke-width:39.3701; stroke-opacity:1; 
stroke-linecap:round; stroke-linejoin:round;">
</g>
<g style="fill:#000000; fill-opacity:0.0; 
stroke:#000000; stroke-width:59.0551; stroke-opacity:1; 
stroke-linecap:round; stroke-linejoin:round;">
<path d="M62755 78897
L105275 78897
" />
</g>
<g style="fill:#000000; fill-opacity:0.0; 
stroke:#000000; stroke-width:39.3701; stroke-opacity:1; 
stroke-linecap:round; stroke-linejoin:round;">
</g>
<g style="fill:#000000; fill-opacity:0.0; 
stroke:#000000; stroke-width:59.0551; stroke-opacity:1; 
stroke-linecap:round; stroke-linejoin:round;">
<path d="M63290 79715
L63290 79125
" />
<path d="M63627 79715
L63374 79378
" />
<path d="M63627 79125
L63290 79462
" />
<path d="M63880 79715
L63880 79322
" />
<path d="M63880 79125
L63852 79153
L63880 79181
L63908 79153
L63880 79125
L63880 79181
" />
<path d="M64499 79659
L64471 79687
L64386 79715
L64330 79715
L64246 79687
L64190 79631
L64161 79575
L64133 79462
L64133 79378
L64161 79266
L64190 79209
L64246 79153
L64330 79125
L64386 79125
L64471 79153
L64499 79181
" />
<path d="M65005 79715
L65005 79406
L64977 79350
L64921 79322
L64808 79322
L64752 79350
" />
<path d="M65005 79687
L64949 79715
L64808 79715
L64752 79687
L64724 79631
L64724 79575
L64752 79519
L64808 79491
L64949 79491
L65005 79462
" />
<path d="M65539 79715
L65539 79125
" />
<path d="M65539 79687
L65483 79715
L65371 79715
L65314 79687
L65286 79659
L65258 79603
L65258 79434
L65286 79378
L65314 79350
L65371 79322
L65483 79322
L65539 79350
" />
<path d="M66271 79406
L66467 79406
" />
<path d="M66552 79715
L66271 79715
L66271 79125
L66552 79125
" />
<path d="M66805 79659
L66833 79687
L66805 79715
L66777 79687
L66805 79659
L66805 79715
" />
<path d="M67086 79715
L67086 79125
L67227 79125
L67311 79153
L67367 79209
L67395 79266
L67424 79378
L67424 79462
L67395 79575
L67367 79631
L67311 79687
L67227 79715
L67086 79715
" />
<path d="M67677 79659
L67705 79687
L67677 79715
L67649 79687
L67677 79659
L67677 79715
" />
<path d="M67930 79547
L68211 79547
" />
<path d="M67874 79715
L68070 79125
L68267 79715
" />
<path d="M68464 79659
L68492 79687
L68464 79715
L68436 79687
L68464 79659
L68464 79715
" />
<path d="M69645 79715
L69645 79125
" />
<path d="M69701 79491
L69870 79715
" />
<path d="M69870 79322
L69645 79547
" />
<path d="M70123 79715
L70123 79322
" />
<path d="M70123 79125
L70095 79153
L70123 79181
L70151 79153
L70123 79125
L70123 79181
" />
<path d="M70658 79687
L70601 79715
L70489 79715
L70433 79687
L70404 79659
L70376 79603
L70376 79434
L70404 79378
L70433 79350
L70489 79322
L70601 79322
L70658 79350
" />
<path d="M71164 79715
L71164 79406
L71136 79350
L71079 79322
L70967 79322
L70911 79350
" />
<path d="M71164 79687
L71107 79715
L70967 79715
L70911 79687
L70883 79631
L70883 79575
L70911 79519
L70967 79491
L71107 79491
L71164 79462
" />
<path d="M71698 79715
L71698 79125
" />
<path d="M71698 79687
L71642 79715
L71529 79715
L71473 79687
L71445 79659
L71417 79603
L71417 79434
L71445 79378
L71473 79350
L71529 79322
L71642 79322
L71698 79350
" />
<path d="M72682 79322
L72682 79715
" />
<path d="M72542 79097
L72401 79519
L72767 79519
" />
<path d="M72992 79659
L73020 79687
L72992 79715
L72964 79687
L72992 79659
L72992 79715
" />
<path d="M73385 79125
L73442 79125
L73498 79153
L73526 79181
L73554 79237
L73582 79350
L73582 79491
L73554 79603
L73526 79659
L73498 79687
L73442 79715
L73385 79715
L73329 79687
L73301 79659
L73273 79603
L73245 79491
L73245 79350
L73273 79237
L73301 79181
L73329 79153
L73385 79125
" />
<path d="M73835 79659
L73863 79687
L73835 79715
L73807 79687
L73835 79659
L73835 79715
" />
<path d="M74060 79125
L74454 79125
L74201 79715
" />
</g>
<g style="fill:#000000; fill-opacity:0.0; 
stroke:#000000; stroke-width:39.3701; stroke-opacity:1; 
stroke-linecap:round; stroke-linejoin:round;">
</g>
<g style="fill:#000000; fill-opacity:0.0; 
stroke:#000000; stroke-width:59.0551; stroke-opacity:1; 
stroke-linecap:round; stroke-linejoin:round;">
<path d="M62755 77716
L105275 77716
" />
</g>
<g style="fill:#000000; fill-opacity:0.0; 
stroke:#000000; stroke-width:39.3701; stroke-opacity:1; 
stroke-linecap:round; stroke-linejoin:round;">
</g>
<g style="fill:#000000; fill-opacity:0.0; 
stroke:#000000; stroke-width:118.11; stroke-opacity:1; 
stroke-linecap:round; stroke-linejoin:round;">
<path d="M97092 78613
L96895 78332
" />
<path d="M96754 78613
L96754 78023
L96979 78023
L97035 78051
L97064 78079
L97092 78135
L97092 78219
L97064 78276
L97035 78304
L96979 78332
L96754 78332
" />
<path d="M97570 78585
L97514 78613
L97401 78613
L97345 78585
L97317 78529
L97317 78304
L97345 78248
L97401 78219
L97514 78219
L97570 78248
L97598 78304
L97598 78360
L97317 78416
" />
<path d="M97795 78219
L97935 78613
L98076 78219
" />
<path d="M98301 78557
L98329 78585
L98301 78613
L98273 78585
L98301 78557
L98301 78613
" />
<path d="M98301 78248
L98329 78276
L98301 78304
L98273 78276
L98301 78248
L98301 78304
" />
</g>
<g style="fill:#000000; fill-opacity:0.0; 
stroke:#000000; stroke-width:39.3701; stroke-opacity:1; 
stroke-linecap:round; stroke-linejoin:round;">
</g>
<g style="fill:#000000; fill-opacity:0.0; 
stroke:#000000; stroke-width:59.0551; stroke-opacity:1; 
stroke-linecap:round; stroke-linejoin:round;">
<path d="M63262 78585
L63346 78613
L63487 78613
L63543 78585
L63571 78557
L63599 78501
L63599 78444
L63571 78388
L63543 78360
L63487 78332
L63374 78304
L63318 78276
L63290 78248
L63262 78191
L63262 78135
L63290 78079
L63318 78051
L63374 78023
L63515 78023
L63599 78051
" />
<path d="M63852 78613
L63852 78219
" />
<path d="M63852 78023
L63824 78051
L63852 78079
L63880 78051
L63852 78023
L63852 78079
" />
<path d="M64077 78219
L64386 78219
L64077 78613
L64386 78613
" />
<path d="M64836 78585
L64780 78613
L64668 78613
L64611 78585
L64583 78529
L64583 78304
L64611 78248
L64668 78219
L64780 78219
L64836 78248
L64865 78304
L64865 78360
L64583 78416
" />
<path d="M65118 78557
L65146 78585
L65118 78613
L65089 78585
L65118 78557
L65118 78613
" />
<path d="M65118 78248
L65146 78276
L65118 78304
L65089 78276
L65118 78248
L65118 78304
" />
<path d="M65821 78444
L66102 78444
" />
<path d="M65764 78613
L65961 78023
L66158 78613
" />
</g>
<g style="fill:#000000; fill-opacity:0.0; 
stroke:#000000; stroke-width:39.3701; stroke-opacity:1; 
stroke-linecap:round; stroke-linejoin:round;">
</g>
<g style="fill:#000000; fill-opacity:0.0; 
stroke:#000000; stroke-width:59.0551; stroke-opacity:1; 
stroke-linecap:round; stroke-linejoin:round;">
<path d="M96754 79715
L96754 79125
" />
<path d="M97289 79715
L97289 79125
" />
<path d="M97289 79687
L97232 79715
L97120 79715
L97064 79687
L97035 79659
L97007 79603
L97007 79434
L97035 79378
L97064 79350
L97120 79322
L97232 79322
L97289 79350
" />
<path d="M97570 79659
L97598 79687
L97570 79715
L97542 79687
L97570 79659
L97570 79715
" />
<path d="M97570 79350
L97598 79378
L97570 79406
L97542 79378
L97570 79350
L97570 79406
" />
<path d="M98610 79715
L98273 79715
" />
<path d="M98442 79715
L98442 79125
L98385 79209
L98329 79266
L98273 79294
" />
<path d="M99285 79097
L98779 79856
" />
<path d="M99791 79715
L99454 79715
" />
<path d="M99623 79715
L99623 79125
L99566 79209
L99510 79266
L99454 79294
" />
</g>
<g style="fill:#000000; fill-opacity:0.0; 
stroke:#000000; stroke-width:39.3701; stroke-opacity:1; 
stroke-linecap:round; stroke-linejoin:round;">
</g>
<g style="fill:#000000; fill-opacity:0.0; 
stroke:#000000; stroke-width:59.0551; stroke-opacity:1; 
stroke-linecap:round; stroke-linejoin:round;">
<path d="M62755 76141
L105275 76141
" />
</g>
<g style="fill:#000000; fill-opacity:0.0; 
stroke:#000000; stroke-width:39.3701; stroke-opacity:1; 
stroke-linecap:round; stroke-linejoin:round;">
</g>
<g style="fill:#000000; fill-opacity:0.0; 
stroke:#000000; stroke-width:157.48; stroke-opacity:1; 
stroke-linecap:round; stroke-linejoin:round;">
<path d="M63327 76419
L63777 76419
" />
<path d="M63454 77206
L63552 76419
" />
<path d="M63941 77206
L64007 76681
" />
<path d="M64040 76419
L63997 76456
L64030 76494
L64072 76456
L64040 76419
L64030 76494
" />
<path d="M64269 76681
L64569 76681
" />
<path d="M64415 76419
L64330 77094
L64358 77169
L64429 77206
L64504 77206
" />
<path d="M64879 77206
L64808 77169
L64780 77094
L64865 76419
" />
<path d="M65483 77169
L65404 77206
L65254 77206
L65183 77169
L65155 77094
L65193 76794
L65239 76719
L65319 76681
L65469 76681
L65539 76719
L65568 76794
L65558 76869
L65174 76944
" />
<path d="M65863 77131
L65896 77169
L65853 77206
L65821 77169
L65863 77131
L65853 77206
" />
<path d="M65914 76719
L65947 76756
L65905 76794
L65872 76756
L65914 76719
L65905 76794
" />
<path d="M66828 77206
L66927 76419
" />
<path d="M67452 76419
L67602 76419
L67672 76456
L67738 76531
L67756 76681
L67724 76944
L67667 77094
L67583 77169
L67503 77206
L67353 77206
L67283 77169
L67217 77094
L67199 76944
L67231 76681
L67288 76531
L67372 76456
L67452 76419
" />
<path d="M68628 77206
L68727 76419
L69078 77206
L69176 76419
" />
<path d="M69565 77206
L69495 77169
L69462 77131
L69434 77056
L69462 76831
L69509 76756
L69551 76719
L69631 76681
L69744 76681
L69814 76719
L69847 76756
L69875 76831
L69847 77056
L69800 77131
L69758 77169
L69678 77206
L69565 77206
" />
<path d="M70503 77206
L70601 76419
" />
<path d="M70508 77169
L70428 77206
L70278 77206
L70208 77169
L70175 77131
L70147 77056
L70175 76831
L70222 76756
L70264 76719
L70344 76681
L70494 76681
L70564 76719
" />
<path d="M71182 77169
L71103 77206
L70953 77206
L70883 77169
L70854 77094
L70892 76794
L70939 76719
L71018 76681
L71168 76681
L71239 76719
L71267 76794
L71257 76869
L70873 76944
" />
<path d="M72153 77206
L72251 76419
L72551 76419
L72621 76456
L72654 76494
L72682 76569
L72668 76681
L72621 76756
L72579 76794
L72500 76831
L72200 76831
" />
<path d="M73399 77131
L73357 77169
L73240 77206
L73165 77206
L73057 77169
L72992 77094
L72964 77019
L72945 76869
L72959 76756
L73015 76606
L73062 76531
L73146 76456
L73263 76419
L73338 76419
L73446 76456
L73479 76494
" />
<path d="M74041 76794
L74149 76831
L74182 76869
L74210 76944
L74196 77056
L74149 77131
L74107 77169
L74027 77206
L73727 77206
L73826 76419
L74088 76419
L74159 76456
L74191 76494
L74220 76569
L74210 76644
L74163 76719
L74121 76756
L74041 76794
L73779 76794
" />
</g>
<g style="fill:#000000; fill-opacity:0.0; 
stroke:#000000; stroke-width:39.3701; stroke-opacity:1; 
stroke-linecap:round; stroke-linejoin:round;">
</g>
<g style="fill:#000000; fill-opacity:0.0; 
stroke:#000000; stroke-width:59.0551; stroke-opacity:1; 
stroke-linecap:round; stroke-linejoin:round;">
<path d="M63487 75390
L63290 75390
" />
<path d="M63290 75700
L63290 75109
L63571 75109
" />
<path d="M63796 75700
L63796 75306
" />
<path d="M63796 75109
L63768 75137
L63796 75165
L63824 75137
L63796 75109
L63796 75165
" />
<path d="M64161 75700
L64105 75672
L64077 75615
L64077 75109
" />
<path d="M64611 75672
L64555 75700
L64443 75700
L64386 75672
L64358 75615
L64358 75390
L64386 75334
L64443 75306
L64555 75306
L64611 75334
L64640 75390
L64640 75447
L64358 75503
" />
<path d="M64893 75643
L64921 75672
L64893 75700
L64865 75672
L64893 75643
L64893 75700
" />
<path d="M64893 75334
L64921 75362
L64893 75390
L64865 75362
L64893 75334
L64893 75390
" />
<path d="M65624 75700
L65624 75306
" />
<path d="M65624 75109
L65596 75137
L65624 75165
L65652 75137
L65624 75109
L65624 75165
" />
<path d="M65989 75700
L65933 75672
L65905 75643
L65877 75587
L65877 75419
L65905 75362
L65933 75334
L65989 75306
L66074 75306
L66130 75334
L66158 75362
L66186 75419
L66186 75587
L66158 75643
L66130 75672
L66074 75700
L65989 75700
" />
<path d="M66439 75306
L66439 75700
" />
<path d="M66439 75362
L66467 75334
L66524 75306
L66608 75306
L66664 75334
L66692 75390
L66692 75700
" />
<path d="M67058 75700
L67002 75672
L66974 75643
L66946 75587
L66946 75419
L66974 75362
L67002 75334
L67058 75306
L67142 75306
L67199 75334
L67227 75362
L67255 75419
L67255 75587
L67227 75643
L67199 75672
L67142 75700
L67058 75700
" />
<path d="M67761 75700
L67761 75109
" />
<path d="M67761 75672
L67705 75700
L67592 75700
L67536 75672
L67508 75643
L67480 75587
L67480 75419
L67508 75362
L67536 75334
L67592 75306
L67705 75306
L67761 75334
" />
<path d="M68267 75672
L68211 75700
L68098 75700
L68042 75672
L68014 75615
L68014 75390
L68042 75334
L68098 75306
L68211 75306
L68267 75334
L68295 75390
L68295 75447
L68014 75503
" />
<path d="M68548 75643
L68577 75672
L68548 75700
L68520 75672
L68548 75643
L68548 75700
" />
<path d="M68830 75700
L68830 75109
" />
<path d="M68886 75475
L69055 75700
" />
<path d="M69055 75306
L68830 75531
" />
<path d="M69308 75700
L69308 75306
" />
<path d="M69308 75109
L69280 75137
L69308 75165
L69336 75137
L69308 75109
L69308 75165
" />
<path d="M69842 75672
L69786 75700
L69673 75700
L69617 75672
L69589 75643
L69561 75587
L69561 75419
L69589 75362
L69617 75334
L69673 75306
L69786 75306
L69842 75334
" />
<path d="M70348 75700
L70348 75390
L70320 75334
L70264 75306
L70151 75306
L70095 75334
" />
<path d="M70348 75672
L70292 75700
L70151 75700
L70095 75672
L70067 75615
L70067 75559
L70095 75503
L70151 75475
L70292 75475
L70348 75447
" />
<path d="M70883 75700
L70883 75109
" />
<path d="M70883 75672
L70826 75700
L70714 75700
L70658 75672
L70629 75643
L70601 75587
L70601 75419
L70629 75362
L70658 75334
L70714 75306
L70826 75306
L70883 75334
" />
<path d="M71023 75756
L71473 75756
" />
<path d="M71614 75306
L71614 75897
" />
<path d="M71614 75334
L71670 75306
L71782 75306
L71839 75334
L71867 75362
L71895 75419
L71895 75587
L71867 75643
L71839 75672
L71782 75700
L71670 75700
L71614 75672
" />
<path d="M72401 75672
L72345 75700
L72232 75700
L72176 75672
L72148 75643
L72120 75587
L72120 75419
L72148 75362
L72176 75334
L72232 75306
L72345 75306
L72401 75334
" />
<path d="M72654 75700
L72654 75109
" />
<path d="M72654 75334
L72710 75306
L72823 75306
L72879 75334
L72907 75362
L72935 75419
L72935 75587
L72907 75643
L72879 75672
L72823 75700
L72710 75700
L72654 75672
" />
</g>
<g style="fill:#000000; fill-opacity:0.0; 
stroke:#000000; stroke-width:39.3701; stroke-opacity:1; 
stroke-linecap:round; stroke-linejoin:round;">
</g>
<g style="fill:#000000; fill-opacity:0.0; 
stroke:#000000; stroke-width:59.0551; stroke-opacity:1; 
stroke-linecap:round; stroke-linejoin:round;">
<path d="M62755 73779
L105275 73779
" />
</g>
<g style="fill:#000000; fill-opacity:0.0; 
stroke:#000000; stroke-width:39.3701; stroke-opacity:1; 
stroke-linecap:round; stroke-linejoin:round;">
</g>
<g style="fill:#000000; fill-opacity:0.0; 
stroke:#000000; stroke-width:59.0551; stroke-opacity:1; 
stroke-linecap:round; stroke-linejoin:round;">
<path d="M63262 74609
L63346 74637
L63487 74637
L63543 74609
L63571 74580
L63599 74524
L63599 74468
L63571 74412
L63543 74384
L63487 74356
L63374 74327
L63318 74299
L63290 74271
L63262 74215
L63262 74159
L63290 74102
L63318 74074
L63374 74046
L63515 74046
L63599 74074
" />
<path d="M63852 74637
L63852 74046
" />
<path d="M64105 74637
L64105 74327
L64077 74271
L64021 74243
L63937 74243
L63880 74271
L63852 74299
" />
<path d="M64611 74609
L64555 74637
L64443 74637
L64386 74609
L64358 74552
L64358 74327
L64386 74271
L64443 74243
L64555 74243
L64611 74271
L64640 74327
L64640 74384
L64358 74440
" />
<path d="M65118 74609
L65061 74637
L64949 74637
L64893 74609
L64865 74552
L64865 74327
L64893 74271
L64949 74243
L65061 74243
L65118 74271
L65146 74327
L65146 74384
L64865 74440
" />
<path d="M65314 74243
L65539 74243
" />
<path d="M65399 74046
L65399 74552
L65427 74609
L65483 74637
L65539 74637
" />
<path d="M65736 74580
L65764 74609
L65736 74637
L65708 74609
L65736 74580
L65736 74637
" />
<path d="M65736 74271
L65764 74299
L65736 74327
L65708 74299
L65736 74271
L65736 74327
" />
</g>
<g style="fill:#000000; fill-opacity:0.0; 
stroke:#000000; stroke-width:39.3701; stroke-opacity:1; 
stroke-linecap:round; stroke-linejoin:round;">
</g>
<g style="fill:#000000; fill-opacity:0.0; 
stroke:#000000; stroke-width:118.11; stroke-opacity:1; 
stroke-linecap:round; stroke-linejoin:round;">
<path d="M63290 73456
L63290 72865
L63487 73287
L63683 72865
L63683 73456
" />
<path d="M64049 73456
L63993 73428
L63965 73399
L63937 73343
L63937 73174
L63965 73118
L63993 73090
L64049 73062
L64133 73062
L64190 73090
L64218 73118
L64246 73174
L64246 73343
L64218 73399
L64190 73428
L64133 73456
L64049 73456
" />
<path d="M64499 73456
L64499 72865
" />
<path d="M64752 73456
L64752 73146
L64724 73090
L64668 73062
L64583 73062
L64527 73090
L64499 73118
" />
<path d="M65005 73428
L65061 73456
L65174 73456
L65230 73428
L65258 73371
L65258 73343
L65230 73287
L65174 73259
L65089 73259
L65033 73231
L65005 73174
L65005 73146
L65033 73090
L65089 73062
L65174 73062
L65230 73090
" />
<path d="M65511 73456
L65511 73062
" />
<path d="M65511 72865
L65483 72893
L65511 72921
L65539 72893
L65511 72865
L65511 72921
" />
<path d="M65793 73062
L65793 73456
" />
<path d="M65793 73118
L65821 73090
L65877 73062
L65961 73062
L66017 73090
L66046 73146
L66046 73456
" />
<path d="M66777 73456
L66777 72865
" />
<path d="M67114 73456
L66861 73118
" />
<path d="M67114 72865
L66777 73203
" />
<path d="M67367 73456
L67367 72865
" />
<path d="M67620 73456
L67620 73146
L67592 73090
L67536 73062
L67452 73062
L67395 73090
L67367 73118
" />
<path d="M68155 73456
L68155 73146
L68127 73090
L68070 73062
L67958 73062
L67902 73090
" />
<path d="M68155 73428
L68098 73456
L67958 73456
L67902 73428
L67874 73371
L67874 73315
L67902 73259
L67958 73231
L68098 73231
L68155 73203
" />
<path d="M68436 73062
L68436 73456
" />
<path d="M68436 73118
L68464 73090
L68520 73062
L68605 73062
L68661 73090
L68689 73146
L68689 73456
" />
<path d="M68998 73428
L68998 73456
L68970 73512
L68942 73540
" />
<path d="M69898 73146
L69983 73174
L70011 73203
L70039 73259
L70039 73343
L70011 73399
L69983 73428
L69926 73456
L69701 73456
L69701 72865
L69898 72865
L69955 72893
L69983 72921
L70011 72978
L70011 73034
L69983 73090
L69955 73118
L69898 73146
L69701 73146
" />
<path d="M70292 73399
L70320 73428
L70292 73456
L70264 73428
L70292 73399
L70292 73456
" />
<path d="M70573 73146
L70770 73146
" />
<path d="M70854 73456
L70573 73456
L70573 72865
L70854 72865
" />
<path d="M71107 73062
L71107 73456
" />
<path d="M71107 73118
L71136 73090
L71192 73062
L71276 73062
L71332 73090
L71361 73146
L71361 73456
" />
<path d="M71895 73062
L71895 73540
L71867 73596
L71839 73624
L71782 73652
L71698 73652
L71642 73624
" />
<path d="M71895 73428
L71839 73456
L71726 73456
L71670 73428
L71642 73399
L71614 73343
L71614 73174
L71642 73118
L71670 73090
L71726 73062
L71839 73062
L71895 73090
" />
</g>
<g style="fill:#000000; fill-opacity:0.0; 
stroke:#000000; stroke-width:39.3701; stroke-opacity:1; 
stroke-linecap:round; stroke-linejoin:round;">
</g>
<g style="fill:#000000; fill-opacity:0.0; 
stroke:#000000; stroke-width:59.0551; stroke-opacity:1; 
stroke-linecap:round; stroke-linejoin:round;">
<path d="M70629 77716
L70629 78897
" />
</g>
<g style="fill:#000000; fill-opacity:0.0; 
stroke:#000000; stroke-width:39.3701; stroke-opacity:1; 
stroke-linecap:round; stroke-linejoin:round;">
</g>
<g style="fill:#000000; fill-opacity:0.0; 
stroke:#000000; stroke-width:59.0551; stroke-opacity:1; 
stroke-linecap:round; stroke-linejoin:round;">
<path d="M95826 77716
L95826 80275
" />
</g>
<g style="fill:#008484; fill-opacity:0.0; 
stroke:#008484; stroke-width:59.0551; stroke-opacity:1; 
stroke-linecap:round; stroke-linejoin:round;">
</g>
<g style="fill:#008484; fill-opacity:0.0; 
stroke:#008484; stroke-width:118.11; stroke-opacity:1; 
stroke-linecap:round; stroke-linejoin:round;">
<path d="M59676 25790
L59676 25678
L59704 25621
L59760 25565
L59873 25537
L60070 25537
L60182 25565
L60239 25621
L60267 25678
L60267 25790
L60239 25846
L60182 25903
L60070 25931
L59873 25931
L59760 25903
L59704 25846
L59676 25790
" />
<path d="M59676 25284
L60154 25284
L60210 25256
L60239 25228
L60267 25171
L60267 25059
L60239 25003
L60210 24975
L60154 24946
L59676 24946
" />
<path d="M59676 24750
L59676 24412
" />
<path d="M60267 24581
L59676 24581
" />
<path d="M49067 26338
L48476 26338
" />
<path d="M49067 26057
L48476 26057
L49067 25720
L48476 25720
" />
<path d="M49067 25439
L48476 25439
L48476 25214
L48504 25157
L48532 25129
L48589 25101
L48673 25101
L48729 25129
L48757 25157
L48785 25214
L48785 25439
" />
<path d="M48476 24848
L48954 24848
L49010 24820
L49039 24792
L49067 24735
L49067 24623
L49039 24567
L49010 24539
L48954 24511
L48476 24511
" />
<path d="M48476 24314
L48476 23976
" />
<path d="M49067 24145
L48476 24145
" />
</g>
<g style="fill:#C2C200; fill-opacity:0.0; 
stroke:#C2C200; stroke-width:118.11; stroke-opacity:1; 
stroke-linecap:round; stroke-linejoin:round;">
</g>
<g style="fill:#C2C200; fill-opacity:0.0; 
stroke:#C2C200; stroke-width:59.0551; stroke-opacity:1; 
stroke-linecap:round; stroke-linejoin:round;">
<path d="M63900 53200
L44900 53200
" />
<path d="M63900 23200
L63900 53200
" />
<path d="M44900 23200
L63900 23200
" />
<path d="M44900 53200
L44900 23200
" />
<path d="M57885 38095
L57904 38114
L57923 38170
L57923 38208
L57904 38264
L57866 38301
L57829 38320
L57754 38339
L57698 38339
L57623 38320
L57585 38301
L57548 38264
L57529 38208
L57529 38170
L57548 38114
L57566 38095
" />
<path d="M57923 37720
L57923 37945
" />
<path d="M57923 37833
L57529 37833
L57585 37870
L57623 37908
L57641 37945
" />
<path d="M60580 35950
L60599 35969
L60618 36025
L60618 36063
L60599 36119
L60561 36156
L60524 36175
L60449 36194
L60393 36194
L60318 36175
L60280 36156
L60243 36119
L60224 36063
L60224 36025
L60243 35969
L60261 35950
" />
<path d="M60261 35800
L60243 35781
L60224 35744
L60224 35650
L60243 35613
L60261 35594
L60299 35575
L60336 35575
L60393 35594
L60618 35819
L60618 35575
" />
<path d="M63000 35885
L63019 35904
L63038 35960
L63038 35998
L63019 36054
L62981 36091
L62944 36110
L62869 36129
L62813 36129
L62738 36110
L62700 36091
L62663 36054
L62644 35998
L62644 35960
L62663 35904
L62681 35885
" />
<path d="M62644 35754
L62644 35510
L62794 35641
L62794 35585
L62813 35548
L62831 35529
L62869 35510
L62963 35510
L63000 35529
L63019 35548
L63038 35585
L63038 35698
L63019 35735
L63000 35754
" />
<path d="M48676 34838
L48283 34838
L48283 34744
L48301 34688
L48339 34651
L48376 34632
L48451 34613
L48508 34613
L48583 34632
L48620 34651
L48658 34688
L48676 34744
L48676 34838
" />
<path d="M48676 34238
L48676 34463
" />
<path d="M48676 34351
L48283 34351
L48339 34388
L48376 34426
L48395 34463
" />
<path d="M49112 49790
L48719 49790
L48719 49696
L48737 49640
L48775 49603
L48812 49584
L48887 49565
L48944 49565
L49019 49584
L49056 49603
L49094 49640
L49112 49696
L49112 49790
" />
<path d="M48756 49415
L48737 49396
L48719 49359
L48719 49265
L48737 49228
L48756 49209
L48794 49190
L48831 49190
L48887 49209
L49112 49434
L49112 49190
" />
<path d="M47884 40031
L48165 40031
L48221 40049
L48259 40087
L48278 40143
L48278 40181
" />
<path d="M48278 39637
L48278 39862
" />
<path d="M48278 39750
L47884 39750
L47940 39787
L47978 39825
L47996 39862
" />
<path d="M46196 40821
L46477 40821
L46533 40839
L46571 40877
L46590 40933
L46590 40971
" />
<path d="M46233 40652
L46215 40633
L46196 40596
L46196 40502
L46215 40465
L46233 40446
L46271 40427
L46308 40427
L46365 40446
L46590 40671
L46590 40427
" />
<path d="M59134 29543
L59134 29824
L59116 29880
L59078 29918
L59022 29937
L58984 29937
" />
<path d="M59491 29674
L59491 29937
" />
<path d="M59397 29524
L59303 29805
L59547 29805
" />
<path d="M56779 47211
L57060 47211
L57116 47229
L57154 47267
L57173 47323
L57173 47361
" />
<path d="M56779 46855
L56779 46930
L56798 46967
L56816 46986
L56873 47023
L56948 47042
L57098 47042
L57135 47023
L57154 47005
L57173 46967
L57173 46892
L57154 46855
L57135 46836
L57098 46817
L57004 46817
L56966 46836
L56948 46855
L56929 46892
L56929 46967
L56948 47005
L56966 47023
L57004 47042
" />
<path d="M53760 50847
L53741 50884
L53704 50922
L53648 50978
L53629 51016
L53629 51053
" />
<path d="M53723 51034
L53704 51072
L53666 51109
L53591 51128
L53460 51128
L53385 51109
L53348 51072
L53329 51034
L53329 50959
L53348 50922
L53385 50884
L53460 50866
L53591 50866
L53666 50884
L53704 50922
L53723 50959
L53723 51034
" />
<path d="M53723 50491
L53723 50716
" />
<path d="M53723 50603
L53329 50603
L53385 50641
L53423 50678
L53441 50716
" />
<path d="M46768 31801
L46731 31782
L46693 31744
L46637 31688
L46599 31669
L46562 31669
" />
<path d="M46581 31763
L46543 31744
L46506 31707
L46487 31632
L46487 31501
L46506 31426
L46543 31388
L46581 31369
L46656 31369
L46693 31388
L46731 31426
L46749 31501
L46749 31632
L46731 31707
L46693 31744
L46656 31763
L46581 31763
" />
<path d="M46899 31407
L46918 31388
L46955 31369
L47049 31369
L47087 31388
L47105 31407
L47124 31444
L47124 31482
L47105 31538
L46880 31763
L47124 31763
" />
<path d="M61386 33376
L61348 33357
L61311 33319
L61254 33263
L61217 33244
L61179 33244
" />
<path d="M61198 33338
L61161 33319
L61123 33282
L61104 33207
L61104 33076
L61123 33001
L61161 32963
L61198 32945
L61273 32945
L61311 32963
L61348 33001
L61367 33076
L61367 33207
L61348 33282
L61311 33319
L61273 33338
L61198 33338
" />
<path d="M61498 32945
L61742 32945
L61611 33095
L61667 33095
L61704 33113
L61723 33132
L61742 33170
L61742 33263
L61723 33301
L61704 33319
L61667 33338
L61554 33338
L61517 33319
L61498 33301
" />
<path d="M60330 47182
L60311 47219
L60274 47257
L60218 47313
L60199 47351
L60199 47388
" />
<path d="M60293 47369
L60274 47407
L60236 47444
L60161 47463
L60030 47463
L59955 47444
L59918 47407
L59899 47369
L59899 47294
L59918 47257
L59955 47219
L60030 47201
L60161 47201
L60236 47219
L60274 47257
L60293 47294
L60293 47369
" />
<path d="M60030 46863
L60293 46863
" />
<path d="M59880 46957
L60161 47051
L60161 46807
" />
<path d="M55058 48550
L54870 48681
" />
<path d="M55058 48775
L54664 48775
L54664 48625
L54683 48588
L54701 48569
L54739 48550
L54795 48550
L54833 48569
L54851 48588
L54870 48625
L54870 48775
" />
<path d="M55058 48175
L55058 48400
" />
<path d="M55058 48288
L54664 48288
L54720 48325
L54758 48363
L54776 48400
" />
<path d="M60934 34548
L60803 34360
" />
<path d="M60709 34548
L60709 34154
L60859 34154
L60896 34173
L60915 34191
L60934 34229
L60934 34285
L60915 34323
L60896 34341
L60859 34360
L60709 34360
" />
<path d="M61084 34191
L61103 34173
L61140 34154
L61234 34154
L61271 34173
L61290 34191
L61309 34229
L61309 34266
L61290 34323
L61065 34548
L61309 34548
" />
<path d="M62058 48605
L61870 48736
" />
<path d="M62058 48830
L61664 48830
L61664 48680
L61683 48643
L61701 48624
L61739 48605
L61795 48605
L61833 48624
L61851 48643
L61870 48680
L61870 48830
" />
<path d="M61664 48474
L61664 48230
L61814 48361
L61814 48305
L61833 48268
L61851 48249
L61889 48230
L61983 48230
L62020 48249
L62039 48268
L62058 48305
L62058 48418
L62039 48455
L62020 48474
" />
<path d="M58078 35235
L57890 35366
" />
<path d="M58078 35460
L57684 35460
L57684 35310
L57703 35273
L57721 35254
L57759 35235
L57815 35235
L57853 35254
L57871 35273
L57890 35310
L57890 35460
" />
<path d="M57815 34898
L58078 34898
" />
<path d="M57665 34991
L57946 35085
L57946 34841
" />
<path d="M51454 47343
L51323 47155
" />
<path d="M51229 47343
L51229 46949
L51379 46949
L51416 46968
L51435 46986
L51454 47024
L51454 47080
L51435 47118
L51416 47136
L51379 47155
L51229 47155
" />
<path d="M51810 46949
L51623 46949
L51604 47136
L51623 47118
L51660 47099
L51754 47099
L51791 47118
L51810 47136
L51829 47174
L51829 47268
L51810 47305
L51791 47324
L51754 47343
L51660 47343
L51623 47324
L51604 47305
" />
<path d="M55494 39944
L55513 39888
L55513 39794
L55494 39757
L55475 39738
L55438 39719
L55400 39719
L55363 39738
L55344 39757
L55325 39794
L55306 39869
L55288 39907
L55269 39926
L55231 39944
L55194 39944
L55156 39926
L55138 39907
L55119 39869
L55119 39776
L55138 39719
" />
<path d="M55119 39588
L55513 39494
L55231 39419
L55513 39345
L55119 39251
" />
<path d="M55513 38895
L55513 39120
" />
<path d="M55513 39007
L55119 39007
L55175 39045
L55213 39082
L55231 39120
" />
<path d="M53884 43891
L54203 43891
L54240 43873
L54259 43854
L54278 43816
L54278 43741
L54259 43704
L54240 43685
L54203 43666
L53884 43666
" />
<path d="M54278 43273
L54278 43498
" />
<path d="M54278 43385
L53884 43385
L53940 43423
L53978 43460
L53996 43498
" />
<path d="M63080 38987
L63268 38987
" />
<path d="M62874 39118
L63080 38987
L62874 38856
" />
<path d="M63268 38518
L63268 38743
" />
<path d="M63268 38631
L62874 38631
L62930 38668
L62968 38706
L62986 38743
" />
<path d="M60268 23684
L60268 23965
L60250 24021
L60212 24059
L60156 24078
L60118 24078
" />
<path d="M60418 23684
L60662 23684
L60531 23834
L60587 23834
L60624 23853
L60643 23871
L60662 23909
L60662 24003
L60643 24040
L60624 24059
L60587 24078
L60474 24078
L60437 24059
L60418 24040
" />
<path d="M49468 23784
L49468 24065
L49450 24121
L49412 24159
L49356 24178
L49318 24178
" />
<path d="M49843 23784
L49656 23784
L49637 23971
L49656 23953
L49693 23934
L49787 23934
L49824 23953
L49843 23971
L49862 24009
L49862 24103
L49843 24140
L49824 24159
L49787 24178
L49693 24178
L49656 24159
L49637 24140
" />
<path d="M52274 37480
L52274 37086
" />
<path d="M52499 37480
L52330 37255
" />
<path d="M52499 37086
L52274 37311
" />
<path d="M52874 37480
L52649 37480
" />
<path d="M52761 37480
L52761 37086
L52724 37142
L52686 37180
L52649 37198
" />
</g>
<g style="fill:#008484; fill-opacity:0.0; 
stroke:#008484; stroke-width:59.0551; stroke-opacity:1; 
stroke-linecap:round; stroke-linejoin:round;">
</g>
<g style="fill:#008484; fill-opacity:0.0; 
stroke:#008484; stroke-width:47.2441; stroke-opacity:1; 
stroke-linecap:round; stroke-linejoin:round;">
<path d="M56781 40542
L56781 38526
" />
<path d="M57813 40542
L57813 38526
" />
<path d="M56781 40542
L57813 40542
" />
<path d="M56781 38526
L57813 38526
" />
<path d="M60015 35684
L60015 37700
" />
<path d="M58984 35684
L58984 37700
" />
<path d="M60015 35684
L58984 35684
" />
<path d="M60015 37700
L58984 37700
" />
<path d="M62415 35684
L62415 37700
" />
<path d="M61384 35684
L61384 37700
" />
<path d="M62415 35684
L61384 35684
" />
<path d="M62415 37700
L61384 37700
" />
<path d="M48053 33500
L48105 33500
" />
<path d="M48105 33500
L48105 35595
" />
<path d="M48105 35595
L48053 35595
" />
<path d="M47046 33500
L46994 33500
" />
<path d="M46994 33500
L46994 35595
" />
<path d="M46994 35595
L47046 35595
" />
<path d="M48105 33831
L46994 33831
" />
<path d="M49675.4 48841.6 A783.465 783.465 0.0 0 0 49613.6 50114.2 " />
<path d="M50586.4 50114.2 A783.465 783.465 0.0 0 0 50524.6 48841.6 " />
<path d="M49674.9 49090.1 A590.551 590.551 0.0 0 0 49674.8 49909.8 " />
<path d="M50525.2 49909.8 A590.551 590.551 0.0 0 0 50525.1 49090.1 " />
<path d="M49613 50114
L49674 50114
" />
<path d="M50525 50114
L50586 50114
" />
<path d="M51823 40923
L51823 38876
" />
<path d="M49800 40923
L51823 40923
" />
<path d="M48776 38876
L51823 38876
" />
<path d="M49800 40923
L49800 39900
" />
<path d="M49800 39900
L48776 39900
" />
<path d="M48776 39900
L48776 38876
" />
<path d="M49300 40923
L48776 40923
" />
<path d="M48776 40923
L48776 40400
" />
<path d="M45376 45323
L46423 45323
" />
<path d="M45376 42300
L45376 45323
" />
<path d="M46423 42300
L46423 45323
" />
<path d="M45376 42300
L46423 42300
" />
<path d="M45376 41800
L45376 41276
" />
<path d="M45376 41276
L45900 41276
" />
<path d="M58742 32200
L59789 32200
" />
<path d="M58742 31176
L58742 32200
" />
<path d="M59789 31176
L59789 32200
" />
<path d="M58742 31176
L59789 31176
" />
<path d="M58742 30676
L58742 30152
" />
<path d="M58742 30152
L59266 30152
" />
<path d="M56376 49723
L57423 49723
" />
<path d="M56376 48700
L56376 49723
" />
<path d="M57423 48700
L57423 49723
" />
<path d="M56376 48700
L57423 48700
" />
<path d="M56376 48200
L56376 47676
" />
<path d="M56376 47676
L56900 47676
" />
<path d="M51971 48591
L51971 50008
" />
<path d="M53723.6 49300 A1023.62 1023.62 0.0 0 0 51976.2 48576.2 " />
<path d="M51976.2 50023.8 A1023.62 1023.62 0.0 0 0 53723.6 49300 " />
<path d="M47514 29455
L46097 29455
" />
<path d="M46806 31207.6 A1023.62 1023.62 0.0 0 0 47529.8 29460.2 " />
<path d="M46082.2 29460.2 A1023.62 1023.62 0.0 0 0 46806 31207.6 " />
<path d="M62132 31030
L60714 31030
" />
<path d="M61423.6 32782.7 A1023.62 1023.62 0.0 0 0 62147.4 31035.2 " />
<path d="M60699.8 31035.2 A1023.62 1023.62 0.0 0 0 61423.6 32782.7 " />
<path d="M58571 47991
L58571 49408
" />
<path d="M60323.6 48700 A1023.62 1023.62 0.0 0 0 58576.2 47976.2 " />
<path d="M58576.2 49423.8 A1023.62 1023.62 0.0 0 0 60323.6 48700 " />
<path d="M54514 49763
L54384 49763
" />
<path d="M54384 49763
L54384 47236
" />
<path d="M54384 47236
L54514 47236
" />
<path d="M55285 49763
L55415 49763
" />
<path d="M55415 49763
L55415 47236
" />
<path d="M55415 47236
L55285 47236
" />
<path d="M62179 34703
L62179 34833
" />
<path d="M62179 34833
L59651 34833
" />
<path d="M59651 34833
L59651 34703
" />
<path d="M62179 33932
L62179 33802
" />
<path d="M62179 33802
L59651 33802
" />
<path d="M59651 33802
L59651 33932
" />
<path d="M61514 49763
L61384 49763
" />
<path d="M61384 49763
L61384 47236
" />
<path d="M61384 47236
L61514 47236
" />
<path d="M62285 49763
L62415 49763
" />
<path d="M62415 49763
L62415 47236
" />
<path d="M62415 47236
L62285 47236
" />
<path d="M58274 33766
L58403 33766
" />
<path d="M58403 33766
L58403 36294
" />
<path d="M58403 36294
L58274 36294
" />
<path d="M57502 33766
L57372 33766
" />
<path d="M57372 33766
L57372 36294
" />
<path d="M57372 36294
L57502 36294
" />
<path d="M52863 47585
L52863 47715
" />
<path d="M52863 47715
L50336 47715
" />
<path d="M50336 47715
L50336 47585
" />
<path d="M52863 46814
L52863 46684
" />
<path d="M52863 46684
L50336 46684
" />
<path d="M50336 46684
L50336 46814
" />
<circle cx="54443.3" cy="39436.2" r="556.777" /> 
<path d="M55671 40605
L55671 38266
" />
<path d="M53214 40605
L53214 38266
" />
<path d="M54970 40664
L53915 40664
" />
<path d="M53915 38207
L54970 38207
" />
<path d="M48477.6 44018.4 A393.701 393.701 0.0 0 0 48477.6 43231 " />
<path d="M48477 44018
L48477 44667
" />
<path d="M48477 44667
L62524 44667
" />
<path d="M62524 44667
L62524 42581
" />
<path d="M62524 42581
L48477 42581
" />
<path d="M48477 42581
L48477 43230
" />
<path d="M59230 38605
L61690 38605
" />
<path d="M59230 40594
L61690 40594
" />
<path d="M59230.3 38605.9 A994.094 994.094 0.0 0 0 59230.3 40594.1 " />
<path d="M61690.9 40594.1 A994.094 994.094 0.0 0 0 61690.9 38605.9 " />
</g>
<g style="fill:#008484; fill-opacity:0.0; 
stroke:#008484; stroke-width:59.0551; stroke-opacity:1; 
stroke-linecap:round; stroke-linejoin:round;">
<path d="M63400 26700
L56400 26700
" />
<path d="M56400 26700
L56400 23700
" />
<path d="M56400 23700
L63400 23700
" />
<path d="M63400 23700
L63400 26700
" />
<path d="M52400 26700
L45400 26700
" />
<path d="M45400 26700
L45400 23700
" />
<path d="M45400 23700
L52400 23700
" />
<path d="M52400 23700
L52400 26700
" />
</g>
<g style="fill:#008484; fill-opacity:0.0; 
stroke:#008484; stroke-width:47.2441; stroke-opacity:1; 
stroke-linecap:round; stroke-linejoin:round;">
<path d="M48824 34152
L48824 36750
" />
<path d="M48824 30609
L48824 33207
" />
<path d="M48824 30609
L56620 30609
" />
<path d="M56620 30609
L56620 36750
" />
<path d="M56620 36750
L48824 36750
" />
<path d="M54946 35333
L54946 34368
" />
<path d="M54946 32026
L54946 33010
" />
<path d="M50773 36061
L51757 36061
" />
<path d="M50419 33699
L50104 33699
" />
<path d="M51757 31337
L50773 31337
" />
<path d="M53096 33699
L53687 33699
" />
<path d="M53687 33699
L55498 32715
" />
<path d="M53096 35117
L50419 35117
" />
<path d="M53096 33699
L53096 35117
" />
<path d="M50419 33699
L50419 35117
" />
<path d="M51757 31337
L51757 32991
" />
<path d="M51757 34408
L51757 36061
" />
<path d="M52545 34408
L50970 32991
" />
<path d="M50970 34408
L50970 32991
" />
<path d="M50970 32991
L52545 32991
" />
<path d="M52545 32991
L52545 34408
" />
<path d="M52545 34408
L50970 34408
" />
</g> 
</svg>
